/* XPM */
static char *_98f8b6d42b0441aa2f8cf2595bbec67[] = {
/* columns rows colors chars-per-pixel */
"128 128 15 1 ",
"  c None",
". c #F94737",
"X c #F24A37",
"o c #F34A37",
"O c #F44937",
"+ c #F54937",
"@ c #F94837",
"# c #099F3E",
"$ c #0B9E3E",
"% c #0A9F3E",
"& c #0D9D3E",
"* c #0E9D3E",
"= c #0C9E3E",
"- c #1A983E",
"; c #348F3D",
/* pixels */
"                                                        *****************                                                       ",
"                                                  ****************************                                                  ",
"                                               ***********************************                                              ",
"                                           ******************************************                                           ",
"                                         ***********************************************                                        ",
"                                      ********************             *******************                                      ",
"                                    ****************                         ***************                                    ",
"                                  **************                                 *************                                  ",
"                                *************                                       ************                                ",
"                               ***********                                             ***********                              ",
"                             ***********                                                 **********                             ",
"                            **********                                                     **********                           ",
"                          **********                                                         *********                          ",
"                         *********                                                             *********                        ",
"                        ********                                                                *********                       ",
"                      *********             ****************************************              ********                      ",
"                     ********               ****************************************               ********                     ",
"                    ********                ****************************************                ********                    ",
"                   ********                 ****************************************                  *******                   ",
"                  ********                  ****************************************                   *******                  ",
"                 *******                    ****************************************                    *******                 ",
"                *******                     ****************************************                     *******                ",
"               *******                      ****************************************                      *******               ",
"               ******                       ********                       *********                       *******              ",
"              ******                        ********                       *********                        *******             ",
"             *******                        ********                       *********                         *******            ",
"            *******                         ********                       *********                          ******            ",
"            ******                          ********                       *********                           ******           ",
"           ******                           ********                       *********                           *******          ",
"          ******                            ********                       *********                            ******          ",
"          ******                            ********                       *********                             ******         ",
"         ******                             ********                       *********                              ******        ",
"        ******                              ********                       *********                              ******        ",
"        ******                              ********                       *********                               ******       ",
"       ******                               ********                       *********                               ******       ",
"       ******                               ********                       *********                                ******      ",
"      ******                                ********                       *********                                ******      ",
"      *****                                 ********                       *********                                 ******     ",
"     ******                                 ********                       *********                                  *****     ",
"     ******                                 ********                       *********                                  ******    ",
"     *****                                  ********                       *********                                  ******    ",
"    ******                                  ********                       *********                                   *****    ",
"    *****                                   ********                       *********                                   ******   ",
"   ******     **************************************                       ***************************************      *****   ",
"   *****     ***************************************                       ***************************************      *****   ",
"   *****     ***************************************                       ***************************************      ******  ",
"  ******     ***************************************                       ***************************************       *****  ",
"  ******     ***************************************                       ***************************************       *****  ",
"  *****      ***************************************                       ***************************************       ****** ",
"  *****      ***************************************                       ***************************************        ***** ",
" ******      ********                                                                                    *********        ***** ",
" *****       ********                                  **                                                *********        ***** ",
" *****       ********                                  **                                                *********        ******",
" *****       ********                                  **                                                *********        ******",
" *****       ********                                  **                                                *********         *****",
"******       ********                                  ***          X                                    *********         *****",
"******       ********                              **********       X                                    *********         *****",
"******       ********                              **********       X                                    *********         *****",
"*****        ********                              **********       X                                    *********         *****",
"*****        ********                              **********      XXX                                   *********         *****",
"*****        ********                              **********  XXXXXXXXXXX                               *********         *****",
"*****        ********                              **********  XXXXXXXXXXX                               *********         *****",
"*****        ********                              **********  XXXXXXXXXXX                               *********         *****",
"*****        ********                              **********  XXXXXXXXXXX                               *********         *****",
"*****        ********                              **********  XXXXXXXXXXX      **                       *********         *****",
"*****        ********                              **********  XXXXXXXXXXX      **                       *********         *****",
"*****        ********                      **      **********  XXXXXXXXXXX      **                       *********         *****",
"*****        ********                      **      **********  XXXXXXXXXXX      **                       *********         *****",
"*****        ********                      **      **********  XXXXXXXXXXX      **                       *********         *****",
"*****        ********                      **      **********  XXXXXXXXXXX &**********                   *********         *****",
"******       ********                  **********  **********  XXXXXXXXXXX &**********                   *********         *****",
"******       ********                 ***********  **********  XXXXXXXXXXX &**********                   *********         *****",
"******       ********                 ***********  **********  XXXXXXXXXXX &**********                   *********         *****",
" *****       ********                 ***********  **********  XXXXXXXXXXX &**********                   *********         *****",
" *****       ***********************  ***********  **********  XXXXXXXXXXX &**********                   *********        ******",
" *****       ***********************  ***********  **********  XXXXXXXXXXX &**********   *************************        ******",
" *****       ***********************  ***********  **********  XXXXXXXXXXX &**********   *************************        ***** ",
" ******      ***********************  ***********  **********  XXXXXXXXXXX &**********   *************************        ***** ",
"  *****      ***********************  ***********  **********  XXXXXXXXXXX &**********   *************************        ***** ",
"  *****      ***********************  ***********  **********  XXXXXXXXXXX &**********   *************************       ****** ",
"  ******     ***********************  ***********  =*********  XXXXXXXXXXX &**********   *************************       *****  ",
"  ******      **********************  ***********  ;-&*******  XXXXXXXXXXX &**********   *************************       *****  ",
"   *****                              **********= Oo    **     XXXXXXXXXXX &**********                                  ******  ",
"   *****                              **********= OX    **     XXXXXXXXXXX &**********                                  *****   ",
"   ******                             **********= OX    **     XXXXXXXXXXX &**********                                  *****   ",
"    *****                             **********= OX    **     XXXXXXXXXXX &**********                                 ******   ",
"    ******                            **********= OX    **     XXXXXXXXXXX &**********                                 *****    ",
"     *****                            **********= OX           XXXXXXXXXXX  %##$*****                                 ******    ",
"     ******                            ********&$ OX            XXXXXXXXX        *                                    ******    ",
"     ******                                ***    XX                XX      XXX  *                                    *****     ",
"      *****                                 *  ++XXX                XX      XXX. *                                   ******     ",
"      ******                                *  XXXXX                XX      XXX. *                                  ******      ",
"       ******                               *  XXXXX                XX      XXX@ *                                  ******      ",
"       ******                               *  XXXXX                XX      XXXo                                   ******       ",
"        ******                              &  XXXXX                 X      XXXX                                   ******       ",
"        ******                                 XXXXX                        XXXXXXXX                              ******        ",
"         ******                             oXXXXXXX                        XXXXXXXX                              ******        ",
"          ******                            XXXXXXXX                        XXXXXXXX                             ******         ",
"          ******                            XXXXXXXX                        XXXXXXXX                            ******          ",
"           ******                           XXXXXXXX                        XXXXXXXX                           *******          ",
"            ******                          XXXXXXXX                        XXXXXXXX                           ******           ",
"            *******                         XXXXXXXX                        XXXXXXXX                          ******            ",
"             *******                        XXXXXXXX                        XXXXXXXX                         *******            ",
"              ******                        XXXXXXXX                        XXXXXXXX                        *******             ",
"               ******                       XXXXXXXXX                      XXXXXXXXX                       *******              ",
"               *******                      XXXXXXXXXXXXXXXXXXXXXXXXXXXXXXXXXXXXXXXX                      *******               ",
"                *******                     XXXXXXXXXXXXXXXXXXXXXXXXXXXXXXXXXXXXXXXX                     *******                ",
"                 *******                    XXXXXXXXXXXXXXXXXXXXXXXXXXXXXXXXXXXXXXXX                    *******                 ",
"                  ********                  XXXXXXXXXXXXXXXXXXXXXXXXXXXXXXXXXXXXXXXX                   *******                  ",
"                   ********                 XXXXXXXXXXXXXXXXXXXXXXXXXXXXXXXXXXXXXXXX                  *******                   ",
"                    ********                XXXXXXXXXXXXXXXXXXXXXXXXXXXXXXXXXXXXXXXX                ********                    ",
"                     ********               XXXXXXXXXXXXXXXXXXXXXXXXXXXXXXXXXXXXXXXX               ********                     ",
"                      *********              XXXXXXXXXXXXXXXXXXXXXXXXXXXXXXXXXXXXXX               ********                      ",
"                        ********                                                                *********                       ",
"                         *********                                                             *********                        ",
"                          **********                                                         *********                          ",
"                            **********                                                     **********                           ",
"                             ***********                                                 **********                             ",
"                               ***********                                             ***********                              ",
"                                *************                                       ************                                ",
"                                  **************                                 *************                                  ",
"                                    ****************                         ***************                                    ",
"                                      ********************             *******************                                      ",
"                                         ***********************************************                                        ",
"                                           ******************************************                                           ",
"                                              ************************************                                              ",
"                                                  ****************************                                                  ",
"                                                        *****************                                                       "
};
