/* XPM */
static char *_535cf2d2c8749d4de2082ab50472003[] = {
/* columns rows colors chars-per-pixel */
"16 16 18 1 ",
"  c None",
". c #7C753B",
"X c #F14A37",
"o c #F24A37",
"O c #F34A37",
"+ c #F54937",
"@ c #099F3E",
"# c #0A9E3E",
"$ c #0A9F3E",
"% c #0E9D3E",
"& c #0C9E3E",
"* c #159A3E",
"= c #2E913D",
"- c #408B3C",
"; c #428A3C",
": c #55833C",
"> c #51853C",
", c #5D803C",
/* pixels */
"     %%%%%%     ",
"            %   ",
"  %   %%%%   %  ",
"     %%  %%   % ",
"     %   %%     ",
"% %%%%   %%%%% %",
"% %          % %",
"% %   &=X    % %",
"% %   #-o.   % %",
"% %%%%&;O:@ %% %",
"%    *> +,$    %",
"                ",
"      O  O    % ",
"  %   OooO   %  ",
"            %   ",
"     &$@@$&     "
};
