/* XPM */
static char *a8228340fca84000e8395d314599b864[] = {
/* columns rows colors chars-per-pixel */
"32 32 31 1 ",
"  c None",
". c #6D7A3B",
"X c #6E7A3B",
"o c #687C3B",
"O c #986B3A",
"+ c #A66639",
"@ c #A96439",
"# c #A96539",
"$ c #B26139",
"% c #B66039",
"& c #C55A38",
"* c #D95338",
"= c #ED4C37",
"- c #F24A37",
"; c #F44937",
": c #F54937",
"> c #F64837",
", c #F64937",
"< c #099F3E",
"1 c #0A9E3E",
"2 c #0B9E3E",
"3 c #0A9F3E",
"4 c #0D9D3E",
"5 c #0E9D3E",
"6 c #0F9D3E",
"7 c #0C9E3E",
"8 c #119C3E",
"9 c #3B8C3D",
"0 c #31903D",
"q c #06A03E",
"w c #5A823C",
/* pixels */
"            55555555            ",
"         55555     5555         ",
"       555            555       ",
"      55                55      ",
"     55    5555555555    55     ",
"    55     5555555555     55    ",
"   55      55      55      55   ",
"  55       55      55       55  ",
"  5        55      55        5  ",
" 55        55      55        55 ",
" 5         55      55         5 ",
" 5 5555555555      555555555  55",
"55 555555555       5555555555 55",
"55 55                     555  5",
"5  55        54           555  5",
"5  55        52o>-        555  5",
"5  55        51X,-        555  5",
"5  55     55 51X>;%<5     555  5",
"55 555 5  55551X>:#155    555  5",
"55 555555 55742.>:@1555555555 55",
" 5        54w0q ;:#355        55",
" 5        52O   -;$86         5 ",
" 55        9*      &         55 ",
"  5        +:      =         5  ",
"  55       --      -;       55  ",
"   55      --      --      55   ",
"    55     ----------     55    ",
"     55    ----------    55     ",
"      55                55      ",
"       555            555       ",
"         55555     5555         ",
"            55555555            "
};
