/* XPM */
static char *a4c7a51569bb4238d22ad121e4cc536e[] = {
/* columns rows colors chars-per-pixel */
"64 64 27 1 ",
"  c None",
". c #EF4B37",
"X c #EB4C37",
"o c #E84E37",
"O c #EE4C37",
"+ c #F14A37",
"@ c #F04B37",
"# c #F24A37",
"$ c #F34A37",
"% c #F44937",
"& c #F54937",
"* c #F64837",
"= c #F74837",
"- c #F64937",
"; c #089F3E",
": c #099F3E",
"> c #0B9E3E",
", c #0D9D3E",
"< c #0E9D3E",
"1 c #0C9E3E",
"2 c #159A3E",
"3 c #149B3E",
"4 c #18993E",
"5 c #19993E",
"6 c #368E3D",
"7 c #398D3D",
"8 c #3B8D3D",
/* pixels */
"                          <<<<<<<<<<<<                          ",
"                      <<<<<<<<<<<<<<<<<<<<                      ",
"                    <<<<<<<<<<<<<<<<<<<<<<<<<                   ",
"                  <<<<<<<               <<<<<<<                 ",
"                <<<<<<                     <<<<<<               ",
"              <<<<<                          <<<<<              ",
"             <<<<                              <<<<             ",
"           <<<<<       <<<<<<<<<<<<<<<<<<       <<<<<           ",
"          <<<<        <<<<<<<<<<<<<<<<<<<<        <<<<          ",
"         <<<<         <<<<<<<<<<<<<<<<<<<<         <<<<         ",
"        <<<<          <<<<<<<<<<<<<<<<<<<<          <<<<        ",
"       <<<<           <<<<           <<<<<           <<<<       ",
"       <<<            <<<<            <<<<            <<<<      ",
"      <<<             <<<<            <<<<             <<<      ",
"     <<<              <<<<            <<<<              <<<     ",
"     <<<              <<<<            <<<<               <<<    ",
"    <<<               <<<<            <<<<               <<<    ",
"    <<                <<<<            <<<<                <<<   ",
"   <<<                <<<<            <<<<                <<<   ",
"   <<                 <<<<            <<<<                 <<<  ",
"  <<<                 <<<<            <<<<                 <<<  ",
"  <<<                 <<<<            <<<<                  <<  ",
" <<<   <<<<<<<<<<<<<<<<<<<            <<<<<<<<<<<<<<<<<<<   <<< ",
" <<<   <<<<<<<<<<<<<<<<<<<            <<<<<<<<<<<<<<<<<<<   <<< ",
" <<<   <<<<<<<<<<<<<<<<<<<            <<<<<<<<<<<<<<<<<<<    << ",
" <<    <<<<                                         <<<<<    <<<",
"<<<    <<<<                 <                        <<<<    <<<",
"<<<    <<<<                <<                        <<<<    <<<",
"<<<    <<<<              <<<<<<   #                  <<<<    <<<",
"<<<    <<<<              <<<<<,   #                  <<<<     <<",
"<<<    <<<<              <<<<<: #####                <<<<     <<",
"<<<    <<<<              <<<<<; #####                <<<<     <<",
"<<<    <<<<              <<<<<; #####   <            <<<<     <<",
"<<<    <<<<              <<<<<; #####   <            <<<<     <<",
"<<<    <<<<          <   <<<<<; ####& ,<<<<          <<<<     <<",
"<<<    <<<<        <<<<< <<<<<; ####= ,<<<<          <<<<    <<<",
"<<<    <<<<        <<<<<<<<<<<; ####= ,<<<<          <<<<    <<<",
"<<<    <<<<<<<<<<< <<<<< <<<<<; ####= ,<<<<         <<<<<    <<<",
" <<    <<<<<<<<<<< <<<<< <<<<<; ####= ,<<<< <<<<<<<<<<<<<    <<<",
" <<<   <<<<<<<<<<< <<<<< ><<<<: ####= ,<<<< <<<<<<<<<<<<<    << ",
" <<<   <<<<<<<<<<< <<<<<372<<<  ####= ,<<<< <<<<<<<<<<<<<   <<< ",
" <<<               <<<<16+  <   ####= ,<<<<                 <<< ",
"  <<<              <<<<18=  <   ####= ,<<<<                 <<  ",
"  <<<              <<<<17*      ####- 1,<<<                <<<  ",
"   <<               <<<5 %        #   o 3                  <<<  ",
"   <<<                > %#        #   $O4                 <<<   ",
"    <<                ;X##        #   #.                  <<<   ",
"    <<<                @##            ##%$               <<<    ",
"     <<<              &###            ####               <<<    ",
"     <<<              ####            ####              <<<     ",
"      <<<             ####            ####             <<<      ",
"       <<<            ####            ####            <<<<      ",
"       <<<<           ####################           <<<<       ",
"        <<<<          ####################          <<<<        ",
"         <<<<         ####################         <<<<         ",
"          <<<<        ####################        <<<<          ",
"           <<<<<                                <<<<<           ",
"             <<<<                              <<<<             ",
"              <<<<<                          <<<<<              ",
"                <<<<<<                     <<<<<<               ",
"                  <<<<<<<               <<<<<<<                 ",
"                    <<<<<<<<<<<<<<<<<<<<<<<<<                   ",
"                      <<<<<<<<<<<<<<<<<<<<                      ",
"                          <<<<<<<<<<<<                          "
};
